<?xml version="1.0" standalone="no"?>
<!DOCTYPE svg PUBLIC "-//W3C//DTD SVG 20010904//EN"
 "http://www.w3.org/TR/2001/REC-SVG-20010904/DTD/svg10.dtd">
<svg version="1.0" xmlns="http://www.w3.org/2000/svg"
 width="30.000000pt" height="19.000000pt" viewBox="0 0 674.000000 639.000000"
 preserveAspectRatio="xMidYMid meet">

<g transform="translate(0.000000,639.000000) scale(0.100000,-0.100000)"
fill="#000000" stroke="none">
<path d="M2311 5184 c-208 -43 -198 -39 -210 -77 -11 -38 -26 -691 -16 -707 5
-8 15 -4 31 11 l24 22 0 -21 c0 -44 14 -29 183 189 36 47 73 92 81 98 28 23
126 -50 295 -218 l157 -156 121 -235 c67 -129 157 -300 200 -379 l78 -145 110
-23 c145 -29 301 -79 325 -103 39 -39 54 -143 75 -515 23 -430 60 -862 125
-1495 16 -157 32 -333 36 -392 6 -95 15 -128 26 -99 2 5 77 -97 168 -227 91
-130 194 -276 230 -325 l65 -89 5 638 c4 554 7 634 19 611 17 -31 31 -26 31
11 l1 27 15 -27 c34 -64 40 -33 54 297 5 127 14 388 20 580 11 342 15 415 26
415 7 0 165 -127 324 -260 196 -164 341 -280 351 -280 6 0 5 9 -2 21 -12 24
-1 20 34 -9 49 -42 12 31 -138 278 -32 52 -210 348 -397 658 l-338 563 0 384
0 384 -302 100 c-167 55 -354 119 -417 141 -63 22 -214 68 -335 101 -122 33
-275 78 -341 100 -130 43 -352 145 -374 172 -23 28 -151 21 -340 -19z"/>
</g>
</svg>
