<svg id="svg" version="1.1" xmlns="http://www.w3.org/2000/svg" xmlns:xlink="http://www.w3.org/1999/xlink" width="400" height="389.90536277602524" viewBox="0, 0, 400,389.90536277602524"><g id="svgg"><path id="path0" d="M146.732 41.751 C 133.855 44.120,121.470 49.379,109.463 57.575 C 82.865 75.732,74.213 86.357,76.288 98.317 C 77.371 104.559,76.836 103.413,100.287 149.659 C 104.314 157.600,108.573 165.941,109.752 168.195 C 110.931 170.449,113.084 174.576,114.536 177.366 C 119.410 186.727,121.453 190.619,122.726 192.976 C 123.422 194.263,125.093 197.424,126.439 200.000 C 127.785 202.576,129.192 205.210,129.566 205.854 C 129.940 206.498,131.084 208.605,132.109 210.537 C 133.134 212.468,134.408 214.839,134.941 215.805 C 135.474 216.771,136.707 219.054,137.682 220.878 C 138.657 222.702,139.863 224.850,140.362 225.651 C 140.860 226.451,141.268 227.188,141.268 227.288 C 141.268 227.388,141.859 228.490,142.581 229.735 C 143.303 230.981,144.329 232.790,144.862 233.756 C 161.145 263.316,171.820 278.296,178.968 281.617 C 194.350 288.762,204.687 273.468,197.865 253.659 C 197.087 251.400,195.414 246.723,194.898 245.366 C 193.357 241.314,193.051 240.525,192.736 239.805 C 192.465 239.185,186.107 222.643,179.685 205.854 C 179.193 204.566,178.447 202.634,178.027 201.561 C 177.608 200.488,176.706 198.117,176.023 196.293 C 175.340 194.468,174.612 192.664,174.405 192.283 C 174.078 191.679,176.567 190.049,177.817 190.049 C 178.385 190.049,187.427 185.408,190.168 183.709 C 208.493 172.354,224.419 151.659,228.275 134.191 C 234.495 106.018,223.331 73.351,201.561 56.024 C 198.570 53.643,190.096 48.000,189.512 48.000 C 189.352 48.000,187.852 47.346,183.220 45.257 C 174.745 41.435,157.471 39.775,146.732 41.751 M147.122 80.288 C 153.751 82.674,163.217 91.962,169.501 102.244 C 180.744 120.639,182.544 144.001,173.350 152.195 C 165.788 158.936,155.834 150.878,145.296 129.483 C 130.178 98.788,131.079 74.511,147.122 80.288 M275.122 114.141 C 263.758 116.791,260.140 123.538,256.808 148.293 C 254.912 162.379,254.874 162.677,254.262 168.195 C 252.297 185.929,251.746 192.558,251.294 203.919 C 250.529 223.114,251.960 233.625,255.594 235.504 C 261.466 238.541,268.514 231.143,281.664 208.139 C 282.505 206.667,284.215 203.707,285.463 201.561 C 289.111 195.289,289.893 193.901,291.292 191.220 C 292.020 189.824,293.426 187.190,294.417 185.366 C 303.433 168.761,310.842 152.190,314.395 140.683 C 317.251 131.436,312.648 123.360,301.281 117.673 C 293.836 113.949,282.508 112.419,275.122 114.141 M248.482 254.060 C 235.252 257.385,231.807 277.515,243.394 283.796 C 254.414 289.771,265.239 281.199,263.959 267.512 C 263.040 257.698,256.528 252.038,248.482 254.060 M102.829 301.911 C 88.493 306.193,88.143 328.288,102.332 333.265 C 105.524 334.385,291.555 334.515,294.857 333.399 C 308.356 328.841,309.518 309.227,296.672 302.780 L 294.049 301.463 199.415 301.396 C 116.480 301.336,104.539 301.400,102.829 301.911 " stroke="none" fill="#fbfbfb" fill-rule="evenodd"></path><path id="path1" d="M179.707 0.425 C 177.346 0.593,174.668 0.771,173.756 0.819 C 172.844 0.868,172.098 1.054,172.098 1.234 C 172.098 1.414,171.044 1.561,169.756 1.561 C 168.468 1.561,167.415 1.716,167.415 1.905 C 167.415 2.094,165.923 2.373,164.099 2.525 C 162.275 2.677,160.685 2.961,160.564 3.157 C 160.443 3.352,159.652 3.512,158.806 3.512 C 157.960 3.512,157.268 3.665,157.268 3.852 C 157.268 4.039,156.039 4.313,154.537 4.461 C 153.034 4.609,151.805 4.875,151.805 5.051 C 151.805 5.228,150.663 5.495,149.268 5.644 C 147.873 5.794,146.732 6.077,146.732 6.275 C 146.732 6.473,146.205 6.634,145.561 6.634 C 144.917 6.634,144.390 6.793,144.390 6.988 C 144.390 7.182,143.512 7.462,142.439 7.610 C 141.366 7.757,140.488 8.037,140.488 8.232 C 140.488 8.426,140.005 8.584,139.415 8.583 C 138.337 8.581,134.609 9.736,134.244 10.184 C 134.137 10.316,133.369 10.549,132.537 10.702 C 131.116 10.964,129.610 11.606,129.171 12.139 C 129.063 12.269,128.273 12.504,127.415 12.662 C 126.556 12.819,125.678 13.082,125.463 13.245 C 125.249 13.409,124.151 13.867,123.024 14.263 C 121.898 14.659,120.976 15.109,120.976 15.262 C 120.976 15.416,120.273 15.660,119.415 15.805 C 118.556 15.950,117.854 16.229,117.854 16.425 C 117.854 16.620,117.502 16.780,117.073 16.780 C 116.644 16.780,116.293 16.942,116.293 17.140 C 116.293 17.337,115.766 17.615,115.122 17.756 C 114.478 17.898,113.951 18.156,113.951 18.330 C 113.951 18.504,113.468 18.764,112.878 18.906 C 111.398 19.264,109.659 20.041,109.659 20.345 C 109.659 20.483,109.044 20.711,108.293 20.852 C 107.541 20.993,106.927 21.257,106.927 21.439 C 106.927 21.620,106.528 21.869,106.041 21.991 C 105.554 22.114,104.771 22.572,104.301 23.009 C 103.832 23.447,103.335 23.805,103.197 23.805 C 102.809 23.805,100.121 25.098,99.902 25.390 C 99.795 25.534,99.312 25.774,98.829 25.925 C 98.346 26.076,97.951 26.349,97.951 26.532 C 97.951 26.715,97.424 26.981,96.780 27.122 C 96.137 27.263,95.610 27.541,95.610 27.738 C 95.610 27.936,95.346 28.098,95.024 28.098 C 94.702 28.098,94.439 28.270,94.439 28.480 C 94.439 28.691,94.000 28.973,93.463 29.108 C 92.927 29.243,92.488 29.470,92.488 29.612 C 92.488 29.755,91.829 30.218,91.024 30.642 C 90.220 31.066,89.329 31.633,89.045 31.901 C 88.762 32.170,88.343 32.390,88.115 32.390 C 87.888 32.390,87.417 32.716,87.070 33.115 C 86.723 33.513,86.041 33.965,85.555 34.119 C 85.069 34.272,84.772 34.561,84.895 34.760 C 85.019 34.959,84.837 35.122,84.492 35.122 C 84.147 35.122,83.478 35.537,83.006 36.043 C 82.533 36.550,81.751 37.089,81.268 37.240 C 80.785 37.392,80.390 37.680,80.390 37.880 C 80.390 38.080,80.191 38.244,79.947 38.244 C 79.704 38.244,79.097 38.683,78.600 39.220 C 78.103 39.756,77.520 40.195,77.305 40.195 C 77.090 40.195,76.475 40.634,75.938 41.171 C 75.401 41.707,74.780 42.146,74.557 42.146 C 74.335 42.146,73.683 42.673,73.109 43.317 C 72.536 43.961,71.906 44.488,71.710 44.488 C 71.514 44.488,70.658 45.190,69.808 46.049 C 68.958 46.907,68.129 47.610,67.966 47.610 C 67.503 47.610,63.235 51.788,63.464 52.017 C 63.577 52.130,63.260 52.350,62.761 52.506 C 61.593 52.873,50.928 63.523,50.562 64.689 C 50.410 65.175,50.166 65.510,50.021 65.433 C 49.684 65.257,46.829 68.162,47.086 68.420 C 47.192 68.525,46.914 68.727,46.468 68.869 C 46.023 69.010,45.659 69.371,45.659 69.670 C 45.659 69.969,44.980 70.886,44.150 71.707 C 43.320 72.529,42.521 73.580,42.374 74.044 C 42.227 74.508,41.773 74.993,41.366 75.122 C 40.959 75.251,40.507 75.728,40.363 76.182 C 40.219 76.636,39.684 77.425,39.173 77.936 C 38.662 78.447,38.244 79.041,38.244 79.256 C 38.244 79.471,37.805 80.054,37.268 80.551 C 36.732 81.048,36.293 81.579,36.293 81.731 C 36.293 81.883,36.073 82.252,35.805 82.551 C 34.642 83.848,34.341 84.285,34.341 84.679 C 34.341 84.909,34.078 85.199,33.756 85.322 C 33.434 85.446,33.171 85.861,33.171 86.244 C 33.171 86.627,32.907 87.042,32.585 87.166 C 32.263 87.289,32.000 87.595,32.000 87.844 C 32.000 88.094,31.674 88.583,31.275 88.930 C 30.877 89.277,30.426 89.956,30.273 90.439 C 30.121 90.922,29.851 91.317,29.675 91.317 C 29.498 91.317,29.234 91.790,29.089 92.367 C 28.944 92.945,28.526 93.691,28.160 94.026 C 27.794 94.360,27.278 95.073,27.014 95.610 C 26.750 96.146,26.004 97.463,25.357 98.537 C 24.710 99.610,24.076 100.795,23.947 101.171 C 23.819 101.546,23.559 101.854,23.369 101.854 C 23.180 101.854,23.024 102.205,23.024 102.634 C 23.024 103.063,22.863 103.415,22.665 103.415 C 22.468 103.415,22.190 103.941,22.049 104.585 C 21.907 105.229,21.638 105.756,21.450 105.756 C 21.262 105.756,20.993 106.371,20.852 107.122 C 20.711 107.873,20.440 108.488,20.249 108.488 C 20.059 108.488,19.902 108.751,19.902 109.073 C 19.902 109.395,19.741 109.659,19.543 109.659 C 19.346 109.659,19.068 110.185,18.927 110.829 C 18.785 111.473,18.549 112.000,18.403 112.000 C 18.112 112.000,16.780 114.885,16.780 115.515 C 16.780 115.728,16.607 115.902,16.395 115.902 C 16.183 115.902,15.897 116.605,15.760 117.463 C 15.622 118.322,15.357 119.024,15.170 119.024 C 14.982 119.024,14.829 119.288,14.829 119.610 C 14.829 119.932,14.669 120.195,14.473 120.195 C 14.278 120.195,13.999 120.898,13.854 121.756 C 13.709 122.615,13.441 123.317,13.258 123.317 C 13.075 123.317,12.808 124.106,12.663 125.069 C 12.519 126.033,12.244 126.725,12.054 126.607 C 11.863 126.489,11.707 126.842,11.707 127.392 C 11.707 127.941,11.547 128.390,11.351 128.390 C 11.156 128.390,10.877 129.093,10.732 129.951 C 10.587 130.810,10.308 131.512,10.112 131.512 C 9.916 131.512,9.756 131.941,9.756 132.465 C 9.756 132.989,9.591 133.520,9.388 133.645 C 9.186 133.770,8.903 134.658,8.759 135.619 C 8.615 136.580,8.354 137.366,8.179 137.366 C 8.004 137.366,7.740 138.332,7.593 139.512 C 7.445 140.693,7.169 141.659,6.979 141.659 C 6.790 141.659,6.634 142.087,6.634 142.611 C 6.634 143.135,6.476 143.662,6.282 143.781 C 6.089 143.901,5.808 145.053,5.659 146.341 C 5.509 147.629,5.249 148.683,5.080 148.683 C 4.912 148.683,4.652 149.824,4.502 151.220 C 4.353 152.615,4.069 153.756,3.871 153.756 C 3.674 153.756,3.512 154.459,3.512 155.317 C 3.512 156.176,3.350 156.878,3.151 156.878 C 2.953 156.878,2.667 158.459,2.516 160.390 C 2.364 162.322,2.088 163.902,1.901 163.902 C 1.714 163.902,1.561 164.839,1.561 165.984 C 1.561 167.128,1.439 168.187,1.290 168.336 C -0.407 170.033,-0.407 220.211,1.290 221.907 C 1.439 222.057,1.561 223.115,1.561 224.260 C 1.561 225.405,1.714 226.341,1.901 226.341 C 2.088 226.341,2.364 227.922,2.516 229.854 C 2.667 231.785,2.953 233.366,3.151 233.366 C 3.350 233.366,3.512 234.068,3.512 234.927 C 3.512 235.785,3.674 236.488,3.871 236.488 C 4.069 236.488,4.353 237.629,4.502 239.024 C 4.652 240.420,4.912 241.561,5.080 241.561 C 5.249 241.561,5.509 242.615,5.659 243.903 C 5.808 245.191,6.089 246.343,6.282 246.463 C 6.476 246.582,6.634 247.109,6.634 247.633 C 6.634 248.157,6.790 248.585,6.979 248.585 C 7.169 248.585,7.445 249.551,7.593 250.732 C 7.740 251.912,8.004 252.878,8.179 252.878 C 8.354 252.878,8.615 253.664,8.759 254.625 C 8.903 255.586,9.186 256.474,9.388 256.599 C 9.591 256.724,9.756 257.255,9.756 257.779 C 9.756 258.303,9.916 258.732,10.112 258.732 C 10.308 258.732,10.587 259.434,10.732 260.293 C 10.877 261.151,11.156 261.854,11.351 261.854 C 11.547 261.854,11.707 262.293,11.707 262.829 C 11.707 263.366,11.867 263.805,12.063 263.805 C 12.259 263.805,12.538 264.507,12.683 265.366 C 12.828 266.224,13.091 266.927,13.268 266.927 C 13.445 266.927,13.709 267.629,13.854 268.488 C 13.999 269.346,14.278 270.049,14.473 270.049 C 14.669 270.049,14.829 270.312,14.829 270.634 C 14.829 270.956,14.982 271.220,15.170 271.220 C 15.357 271.220,15.622 271.922,15.760 272.780 C 15.897 273.639,16.183 274.341,16.395 274.341 C 16.607 274.341,16.780 274.516,16.780 274.729 C 16.780 275.359,18.112 278.244,18.403 278.244 C 18.549 278.244,18.785 278.771,18.927 279.415 C 19.068 280.059,19.346 280.585,19.543 280.585 C 19.741 280.585,19.902 280.849,19.902 281.171 C 19.902 281.493,20.059 281.756,20.249 281.756 C 20.440 281.756,20.711 282.371,20.852 283.122 C 20.993 283.873,21.262 284.488,21.450 284.488 C 21.638 284.488,21.907 285.015,22.049 285.659 C 22.190 286.302,22.468 286.829,22.665 286.829 C 22.863 286.829,23.024 287.180,23.024 287.610 C 23.024 288.039,23.180 288.390,23.369 288.390 C 23.559 288.390,23.819 288.698,23.947 289.073 C 24.076 289.449,24.710 290.634,25.357 291.707 C 26.004 292.780,26.750 294.098,27.014 294.634 C 27.278 295.171,27.794 295.884,28.160 296.218 C 28.526 296.553,28.944 297.299,29.089 297.877 C 29.234 298.454,29.498 298.927,29.675 298.927 C 29.851 298.927,30.121 299.322,30.273 299.805 C 30.426 300.288,30.833 300.949,31.178 301.274 C 31.936 301.989,32.724 303.181,33.025 304.071 C 33.148 304.431,33.494 304.821,33.795 304.936 C 34.095 305.052,34.341 305.340,34.341 305.577 C 34.341 305.813,34.561 306.252,34.829 306.551 C 35.909 307.755,36.293 308.272,36.293 308.524 C 36.293 308.670,36.732 309.195,37.268 309.693 C 37.805 310.190,38.244 310.773,38.244 310.988 C 38.244 311.203,38.662 311.797,39.173 312.308 C 39.684 312.819,40.219 313.608,40.363 314.062 C 40.507 314.516,40.959 314.993,41.366 315.122 C 41.773 315.251,42.227 315.736,42.374 316.200 C 42.521 316.664,43.320 317.715,44.150 318.537 C 44.980 319.358,45.659 320.275,45.659 320.574 C 45.659 320.873,46.023 321.234,46.468 321.375 C 46.914 321.517,47.187 321.723,47.076 321.835 C 46.964 321.946,47.741 322.870,48.802 323.887 C 49.864 324.904,50.732 325.873,50.732 326.040 C 50.732 326.384,61.830 337.561,62.172 337.561 C 62.294 337.561,63.576 338.702,65.020 340.098 C 66.464 341.493,67.784 342.634,67.954 342.634 C 68.124 342.634,68.958 343.337,69.808 344.195 C 70.658 345.054,71.469 345.756,71.609 345.756 C 71.750 345.756,72.392 346.283,73.036 346.927 C 73.680 347.571,74.376 348.098,74.584 348.098 C 74.792 348.098,75.401 348.537,75.938 349.073 C 76.475 349.610,77.090 350.049,77.305 350.049 C 77.520 350.049,78.103 350.488,78.600 351.024 C 79.097 351.561,79.704 352.000,79.947 352.000 C 80.191 352.000,80.390 352.172,80.390 352.383 C 80.390 352.593,80.796 352.867,81.291 352.992 C 81.786 353.116,82.513 353.646,82.907 354.170 C 83.300 354.693,83.959 355.122,84.370 355.122 C 84.782 355.122,85.019 355.285,84.895 355.484 C 84.772 355.683,85.069 355.972,85.555 356.125 C 86.041 356.279,86.702 356.705,87.024 357.073 C 87.346 357.441,88.005 357.867,88.488 358.019 C 88.971 358.172,89.366 358.460,89.366 358.660 C 89.366 358.861,89.629 359.024,89.951 359.024 C 90.273 359.024,90.537 359.200,90.537 359.415 C 90.537 359.629,90.787 359.805,91.094 359.805 C 91.401 359.805,91.892 360.045,92.185 360.339 C 92.479 360.632,93.106 360.995,93.579 361.146 C 94.052 361.296,94.439 361.582,94.439 361.782 C 94.439 361.983,94.702 362.146,95.024 362.146 C 95.346 362.146,95.610 362.308,95.610 362.506 C 95.610 362.703,96.137 362.981,96.780 363.122 C 97.424 363.263,97.951 363.529,97.951 363.712 C 97.951 363.895,98.346 364.168,98.829 364.319 C 99.312 364.470,99.795 364.710,99.902 364.853 C 100.121 365.146,102.809 366.439,103.197 366.439 C 103.335 366.439,103.832 366.797,104.301 367.235 C 104.771 367.672,105.554 368.130,106.041 368.253 C 106.528 368.375,106.927 368.623,106.927 368.805 C 106.927 368.987,107.541 369.251,108.293 369.392 C 109.044 369.533,109.659 369.761,109.659 369.899 C 109.659 370.203,111.398 370.980,112.878 371.338 C 113.468 371.480,113.951 371.753,113.951 371.945 C 113.951 372.136,114.215 372.293,114.537 372.293 C 114.859 372.293,115.122 372.460,115.122 372.665 C 115.122 372.870,115.737 373.153,116.488 373.294 C 117.239 373.435,117.854 373.691,117.854 373.863 C 117.854 374.035,118.556 374.294,119.415 374.439 C 120.273 374.584,120.976 374.828,120.976 374.982 C 120.976 375.135,121.898 375.585,123.024 375.981 C 124.151 376.377,125.249 376.835,125.463 376.998 C 125.678 377.162,126.556 377.425,127.415 377.582 C 128.273 377.740,129.063 377.975,129.171 378.105 C 129.610 378.638,131.116 379.280,132.537 379.542 C 133.369 379.695,134.137 379.928,134.244 380.059 C 134.609 380.508,138.337 381.662,139.415 381.660 C 140.005 381.659,140.488 381.818,140.488 382.012 C 140.488 382.207,141.366 382.487,142.439 382.634 C 143.512 382.782,144.390 383.062,144.390 383.256 C 144.390 383.451,144.917 383.610,145.561 383.610 C 146.205 383.610,146.732 383.771,146.732 383.969 C 146.732 384.166,147.873 384.450,149.268 384.600 C 150.663 384.749,151.805 385.016,151.805 385.193 C 151.805 385.369,153.034 385.635,154.537 385.783 C 156.039 385.931,157.268 386.205,157.268 386.392 C 157.268 386.579,157.960 386.732,158.806 386.732 C 159.652 386.732,160.443 386.892,160.564 387.087 C 160.685 387.282,162.275 387.567,164.099 387.719 C 165.923 387.870,167.415 388.150,167.415 388.339 C 167.415 388.528,168.454 388.683,169.724 388.683 C 170.993 388.683,172.091 388.836,172.163 389.022 C 172.758 390.574,227.242 390.574,227.837 389.022 C 227.909 388.836,229.007 388.683,230.276 388.683 C 231.546 388.683,232.585 388.528,232.585 388.339 C 232.585 388.150,234.077 387.870,235.901 387.719 C 237.725 387.567,239.315 387.282,239.436 387.087 C 239.557 386.892,240.348 386.732,241.194 386.732 C 242.040 386.732,242.732 386.579,242.732 386.392 C 242.732 386.205,243.961 385.931,245.463 385.783 C 246.966 385.635,248.195 385.369,248.195 385.193 C 248.195 385.016,249.337 384.749,250.732 384.600 C 252.127 384.450,253.268 384.166,253.268 383.969 C 253.268 383.771,253.795 383.610,254.439 383.610 C 255.083 383.610,255.610 383.451,255.610 383.256 C 255.610 383.062,256.488 382.782,257.561 382.634 C 258.634 382.487,259.512 382.207,259.512 382.012 C 259.512 381.818,259.995 381.659,260.585 381.660 C 261.663 381.662,265.391 380.508,265.756 380.059 C 265.863 379.928,266.631 379.695,267.463 379.542 C 268.884 379.280,270.390 378.638,270.829 378.105 C 270.937 377.975,271.727 377.740,272.585 377.582 C 273.444 377.425,274.322 377.162,274.537 376.998 C 274.751 376.835,275.849 376.377,276.976 375.981 C 278.102 375.585,279.024 375.135,279.024 374.982 C 279.024 374.828,279.727 374.584,280.585 374.439 C 281.444 374.294,282.146 374.035,282.146 373.863 C 282.146 373.691,282.761 373.435,283.512 373.294 C 284.263 373.153,284.878 372.870,284.878 372.665 C 284.878 372.460,285.141 372.293,285.463 372.293 C 285.785 372.293,286.049 372.136,286.049 371.945 C 286.049 371.753,286.532 371.480,287.122 371.338 C 288.602 370.980,290.341 370.203,290.341 369.899 C 290.341 369.761,290.956 369.533,291.707 369.392 C 292.459 369.251,293.073 368.987,293.073 368.805 C 293.073 368.623,293.472 368.375,293.959 368.253 C 294.446 368.130,295.229 367.672,295.699 367.235 C 296.168 366.797,296.665 366.439,296.803 366.439 C 297.191 366.439,299.879 365.146,300.098 364.853 C 300.205 364.710,300.688 364.470,301.171 364.319 C 301.654 364.168,302.049 363.895,302.049 363.712 C 302.049 363.529,302.576 363.263,303.220 363.122 C 303.863 362.981,304.390 362.703,304.390 362.506 C 304.390 362.308,304.654 362.146,304.976 362.146 C 305.298 362.146,305.561 361.983,305.561 361.782 C 305.561 361.582,305.948 361.296,306.421 361.146 C 306.894 360.995,307.521 360.632,307.815 360.339 C 308.108 360.045,308.599 359.805,308.906 359.805 C 309.213 359.805,309.463 359.629,309.463 359.415 C 309.463 359.200,309.727 359.024,310.049 359.024 C 310.371 359.024,310.634 358.861,310.634 358.660 C 310.634 358.460,311.029 358.172,311.512 358.019 C 311.995 357.867,312.654 357.441,312.976 357.073 C 313.298 356.705,313.956 356.280,314.439 356.127 C 314.922 355.975,315.317 355.686,315.317 355.486 C 315.317 355.286,315.556 355.122,315.848 355.122 C 316.140 355.122,316.700 354.693,317.093 354.170 C 317.487 353.646,318.214 353.116,318.709 352.992 C 319.204 352.867,319.610 352.593,319.610 352.383 C 319.610 352.172,319.809 352.000,320.053 352.000 C 320.296 352.000,320.903 351.561,321.400 351.024 C 321.897 350.488,322.480 350.049,322.695 350.049 C 322.910 350.049,323.525 349.610,324.062 349.073 C 324.599 348.537,325.208 348.098,325.416 348.098 C 325.624 348.098,326.320 347.571,326.964 346.927 C 327.608 346.283,328.250 345.756,328.391 345.756 C 328.531 345.756,329.342 345.054,330.192 344.195 C 331.042 343.337,331.876 342.634,332.046 342.634 C 332.216 342.634,333.536 341.493,334.980 340.098 C 336.424 338.702,337.706 337.561,337.828 337.561 C 338.162 337.561,349.268 326.388,349.268 326.052 C 349.268 325.892,350.410 324.642,351.805 323.274 C 353.200 321.906,354.341 320.617,354.341 320.409 C 354.341 320.200,355.020 319.358,355.850 318.537 C 356.680 317.715,357.479 316.664,357.626 316.200 C 357.773 315.736,358.227 315.251,358.634 315.122 C 359.041 314.993,359.493 314.516,359.637 314.062 C 359.781 313.608,360.316 312.819,360.827 312.308 C 361.338 311.797,361.756 311.203,361.756 310.988 C 361.756 310.773,362.195 310.190,362.732 309.693 C 363.268 309.195,363.707 308.664,363.707 308.513 C 363.707 308.361,363.927 307.992,364.195 307.693 C 365.335 306.422,365.659 305.964,365.659 305.619 C 365.659 305.418,365.922 305.153,366.244 305.030 C 366.566 304.906,366.829 304.536,366.829 304.207 C 366.829 303.879,366.993 303.610,367.193 303.610 C 367.393 303.610,367.682 303.215,367.834 302.732 C 367.987 302.249,368.413 301.590,368.780 301.268 C 369.148 300.946,369.574 300.288,369.727 299.805 C 369.879 299.322,370.149 298.927,370.325 298.927 C 370.502 298.927,370.766 298.454,370.911 297.877 C 371.056 297.299,371.470 296.550,371.831 296.212 C 372.192 295.874,372.770 295.073,373.115 294.433 C 374.781 291.337,375.257 290.532,375.707 290.039 C 375.976 289.745,376.195 289.254,376.195 288.948 C 376.195 288.641,376.371 288.390,376.585 288.390 C 376.800 288.390,376.976 288.039,376.976 287.610 C 376.976 287.180,377.137 286.829,377.335 286.829 C 377.532 286.829,377.810 286.302,377.951 285.659 C 378.093 285.015,378.362 284.488,378.550 284.488 C 378.738 284.488,379.007 283.873,379.148 283.122 C 379.289 282.371,379.560 281.756,379.751 281.756 C 379.941 281.756,380.098 281.493,380.098 281.171 C 380.098 280.849,380.259 280.585,380.457 280.585 C 380.654 280.585,380.932 280.059,381.073 279.415 C 381.215 278.771,381.451 278.244,381.597 278.244 C 381.888 278.244,383.220 275.359,383.220 274.729 C 383.220 274.516,383.393 274.341,383.605 274.341 C 383.817 274.341,384.103 273.639,384.240 272.780 C 384.378 271.922,384.643 271.220,384.830 271.220 C 385.018 271.220,385.171 270.956,385.171 270.634 C 385.171 270.312,385.331 270.049,385.527 270.049 C 385.722 270.049,386.001 269.346,386.146 268.488 C 386.291 267.629,386.555 266.927,386.732 266.927 C 386.909 266.927,387.172 266.224,387.317 265.366 C 387.462 264.507,387.741 263.805,387.937 263.805 C 388.133 263.805,388.293 263.366,388.293 262.829 C 388.293 262.293,388.453 261.854,388.649 261.854 C 388.844 261.854,389.123 261.151,389.268 260.293 C 389.413 259.434,389.692 258.732,389.888 258.732 C 390.084 258.732,390.244 258.303,390.244 257.779 C 390.244 257.255,390.409 256.724,390.612 256.599 C 390.814 256.474,391.097 255.586,391.241 254.625 C 391.385 253.664,391.646 252.878,391.821 252.878 C 391.996 252.878,392.260 251.912,392.407 250.732 C 392.555 249.551,392.831 248.585,393.021 248.585 C 393.210 248.585,393.366 248.157,393.366 247.633 C 393.366 247.109,393.524 246.582,393.718 246.463 C 393.911 246.343,394.192 245.191,394.341 243.903 C 394.491 242.615,394.751 241.561,394.920 241.561 C 395.088 241.561,395.348 240.420,395.498 239.024 C 395.647 237.629,395.931 236.488,396.129 236.488 C 396.326 236.488,396.488 235.785,396.488 234.927 C 396.488 234.068,396.650 233.366,396.849 233.366 C 397.047 233.366,397.333 231.785,397.484 229.854 C 397.636 227.922,397.912 226.341,398.099 226.341 C 398.286 226.341,398.439 225.411,398.439 224.273 C 398.439 223.136,398.599 222.038,398.794 221.834 C 400.345 220.217,400.345 170.027,398.794 168.410 C 398.599 168.206,398.439 167.108,398.439 165.971 C 398.439 164.833,398.286 163.902,398.099 163.902 C 397.912 163.902,397.636 162.322,397.484 160.390 C 397.333 158.459,397.047 156.878,396.849 156.878 C 396.650 156.878,396.488 156.176,396.488 155.317 C 396.488 154.459,396.326 153.756,396.129 153.756 C 395.931 153.756,395.647 152.615,395.498 151.220 C 395.348 149.824,395.088 148.683,394.920 148.683 C 394.751 148.683,394.491 147.629,394.341 146.341 C 394.192 145.053,393.911 143.901,393.718 143.781 C 393.524 143.662,393.366 143.135,393.366 142.611 C 393.366 142.087,393.210 141.659,393.021 141.659 C 392.831 141.659,392.555 140.693,392.407 139.512 C 392.260 138.332,391.996 137.366,391.821 137.366 C 391.646 137.366,391.385 136.580,391.241 135.619 C 391.097 134.658,390.814 133.770,390.612 133.645 C 390.409 133.520,390.244 132.989,390.244 132.465 C 390.244 131.941,390.084 131.512,389.888 131.512 C 389.692 131.512,389.413 130.810,389.268 129.951 C 389.123 129.093,388.844 128.390,388.649 128.390 C 388.453 128.390,388.293 127.941,388.293 127.392 C 388.293 126.842,388.137 126.489,387.946 126.607 C 387.756 126.725,387.481 126.033,387.337 125.069 C 387.192 124.106,386.925 123.317,386.742 123.317 C 386.559 123.317,386.291 122.615,386.146 121.756 C 386.001 120.898,385.722 120.195,385.527 120.195 C 385.331 120.195,385.171 119.932,385.171 119.610 C 385.171 119.288,385.018 119.024,384.830 119.024 C 384.643 119.024,384.378 118.322,384.240 117.463 C 384.103 116.605,383.817 115.902,383.605 115.902 C 383.393 115.902,383.220 115.728,383.220 115.515 C 383.220 114.885,381.888 112.000,381.597 112.000 C 381.451 112.000,381.215 111.473,381.073 110.829 C 380.932 110.185,380.654 109.659,380.457 109.659 C 380.259 109.659,380.098 109.395,380.098 109.073 C 380.098 108.751,379.941 108.488,379.751 108.488 C 379.560 108.488,379.289 107.873,379.148 107.122 C 379.007 106.371,378.738 105.756,378.550 105.756 C 378.362 105.756,378.093 105.229,377.951 104.585 C 377.810 103.941,377.532 103.415,377.335 103.415 C 377.137 103.415,376.976 103.063,376.976 102.634 C 376.976 102.205,376.820 101.854,376.631 101.854 C 376.441 101.854,376.181 101.546,376.053 101.171 C 375.924 100.795,375.290 99.610,374.643 98.537 C 373.996 97.463,373.250 96.146,372.986 95.610 C 372.722 95.073,372.206 94.360,371.840 94.026 C 371.474 93.691,371.056 92.945,370.911 92.367 C 370.766 91.790,370.502 91.317,370.325 91.317 C 370.149 91.317,369.879 90.922,369.727 90.439 C 369.574 89.956,369.123 89.277,368.725 88.930 C 368.326 88.583,368.000 88.094,368.000 87.844 C 368.000 87.595,367.737 87.289,367.415 87.166 C 367.093 87.042,366.829 86.603,366.829 86.190 C 366.829 85.777,366.566 85.338,366.244 85.214 C 365.922 85.091,365.659 84.820,365.659 84.613 C 365.659 84.406,365.439 83.992,365.171 83.693 C 364.091 82.489,363.707 81.972,363.707 81.720 C 363.707 81.574,363.268 81.048,362.732 80.551 C 362.195 80.054,361.756 79.471,361.756 79.256 C 361.756 79.041,361.338 78.447,360.827 77.936 C 360.316 77.425,359.781 76.636,359.637 76.182 C 359.493 75.728,359.041 75.251,358.634 75.122 C 358.227 74.993,357.773 74.508,357.626 74.044 C 357.479 73.580,356.680 72.529,355.850 71.707 C 355.020 70.886,354.341 70.053,354.341 69.856 C 354.341 69.371,350.164 65.186,349.922 65.428 C 349.816 65.533,349.602 65.211,349.445 64.712 C 349.175 63.851,338.347 52.683,337.782 52.683 C 337.634 52.683,336.361 51.541,334.952 50.146 C 333.543 48.751,332.243 47.610,332.064 47.610 C 331.884 47.610,331.042 46.907,330.192 46.049 C 329.342 45.190,328.486 44.488,328.290 44.488 C 328.094 44.488,327.464 43.961,326.891 43.317 C 326.317 42.673,325.665 42.146,325.443 42.146 C 325.220 42.146,324.599 41.707,324.062 41.171 C 323.525 40.634,322.910 40.195,322.695 40.195 C 322.480 40.195,321.897 39.756,321.400 39.220 C 320.903 38.683,320.296 38.244,320.053 38.244 C 319.809 38.244,319.610 38.080,319.610 37.880 C 319.610 37.680,319.215 37.392,318.732 37.240 C 318.249 37.089,317.467 36.550,316.994 36.043 C 316.522 35.537,315.951 35.122,315.726 35.122 C 315.501 35.122,315.317 34.958,315.317 34.758 C 315.317 34.558,314.922 34.269,314.439 34.117 C 313.956 33.964,313.277 33.513,312.930 33.115 C 312.583 32.716,312.112 32.390,311.885 32.390 C 311.657 32.390,311.238 32.170,310.955 31.901 C 310.671 31.633,309.780 31.066,308.976 30.642 C 308.171 30.218,307.512 29.755,307.512 29.612 C 307.512 29.470,307.073 29.243,306.537 29.108 C 306.000 28.973,305.561 28.691,305.561 28.480 C 305.561 28.270,305.298 28.098,304.976 28.098 C 304.654 28.098,304.390 27.936,304.390 27.738 C 304.390 27.541,303.863 27.263,303.220 27.122 C 302.576 26.981,302.049 26.715,302.049 26.532 C 302.049 26.349,301.654 26.076,301.171 25.925 C 300.688 25.774,300.205 25.534,300.098 25.390 C 299.879 25.098,297.191 23.805,296.803 23.805 C 296.665 23.805,296.168 23.447,295.699 23.009 C 295.229 22.572,294.446 22.114,293.959 21.991 C 293.472 21.869,293.073 21.620,293.073 21.439 C 293.073 21.257,292.459 20.993,291.707 20.852 C 290.956 20.711,290.341 20.483,290.341 20.345 C 290.341 20.041,288.602 19.264,287.122 18.906 C 286.532 18.764,286.049 18.504,286.049 18.330 C 286.049 18.156,285.522 17.898,284.878 17.756 C 284.234 17.615,283.707 17.337,283.707 17.140 C 283.707 16.942,283.356 16.780,282.927 16.780 C 282.498 16.780,282.146 16.620,282.146 16.425 C 282.146 16.229,281.444 15.950,280.585 15.805 C 279.727 15.660,279.024 15.416,279.024 15.262 C 279.024 15.109,278.102 14.659,276.976 14.263 C 275.849 13.867,274.751 13.409,274.537 13.245 C 274.322 13.082,273.444 12.819,272.585 12.662 C 271.727 12.504,270.937 12.269,270.829 12.139 C 270.390 11.606,268.884 10.964,267.463 10.702 C 266.631 10.549,265.863 10.316,265.756 10.184 C 265.391 9.736,261.663 8.581,260.585 8.583 C 259.995 8.584,259.512 8.426,259.512 8.232 C 259.512 8.037,258.634 7.757,257.561 7.610 C 256.488 7.462,255.610 7.182,255.610 6.988 C 255.610 6.793,255.083 6.634,254.439 6.634 C 253.795 6.634,253.268 6.473,253.268 6.275 C 253.268 6.077,252.127 5.794,250.732 5.644 C 249.337 5.495,248.195 5.228,248.195 5.051 C 248.195 4.875,246.966 4.609,245.463 4.461 C 243.961 4.313,242.732 4.039,242.732 3.852 C 242.732 3.665,242.040 3.512,241.194 3.512 C 240.348 3.512,239.557 3.352,239.436 3.157 C 239.315 2.961,237.725 2.677,235.901 2.525 C 234.077 2.373,232.585 2.094,232.585 1.905 C 232.585 1.716,231.532 1.561,230.244 1.561 C 228.956 1.561,227.902 1.412,227.902 1.230 C 227.902 1.048,227.420 0.882,226.829 0.861 C 226.239 0.840,223.122 0.641,219.902 0.418 C 213.252 -0.043,186.187 -0.038,179.707 0.425 M169.463 41.587 C 174.567 42.452,180.524 44.041,183.220 45.257 C 187.852 47.346,189.352 48.000,189.512 48.000 C 190.096 48.000,198.570 53.643,201.561 56.024 C 223.331 73.351,234.495 106.018,228.275 134.191 C 224.419 151.659,208.493 172.354,190.168 183.709 C 187.427 185.408,178.385 190.049,177.817 190.049 C 176.567 190.049,174.078 191.679,174.405 192.283 C 174.612 192.664,175.340 194.468,176.023 196.293 C 176.706 198.117,177.608 200.488,178.027 201.561 C 178.447 202.634,179.193 204.566,179.685 205.854 C 186.107 222.643,192.465 239.185,192.736 239.805 C 193.051 240.525,193.357 241.314,194.898 245.366 C 195.414 246.723,197.087 251.400,197.865 253.659 C 204.687 273.468,194.350 288.762,178.968 281.617 C 171.820 278.296,161.145 263.316,144.862 233.756 C 144.329 232.790,143.303 230.981,142.581 229.735 C 141.859 228.490,141.268 227.388,141.268 227.288 C 141.268 227.188,140.860 226.451,140.362 225.651 C 139.863 224.850,138.657 222.702,137.682 220.878 C 136.707 219.054,135.474 216.771,134.941 215.805 C 134.408 214.839,133.134 212.468,132.109 210.537 C 131.084 208.605,129.940 206.498,129.566 205.854 C 129.192 205.210,127.785 202.576,126.439 200.000 C 125.093 197.424,123.422 194.263,122.726 192.976 C 121.453 190.619,119.410 186.727,114.536 177.366 C 113.084 174.576,110.931 170.449,109.752 168.195 C 108.573 165.941,104.314 157.600,100.287 149.659 C 76.836 103.413,77.371 104.559,76.288 98.317 C 74.213 86.357,82.865 75.732,109.463 57.575 C 128.924 44.291,150.885 38.439,169.463 41.587 M140.536 79.596 C 132.220 81.651,132.556 99.390,141.311 120.508 C 154.116 151.395,168.632 162.929,176.462 148.437 C 178.878 143.964,179.868 131.885,178.393 124.878 C 175.184 109.636,168.293 97.516,156.673 86.676 C 150.830 81.225,144.746 78.556,140.536 79.596 M290.927 114.157 C 307.926 117.403,318.051 128.846,314.395 140.683 C 310.842 152.190,303.433 168.761,294.417 185.366 C 293.426 187.190,292.020 189.824,291.292 191.220 C 289.893 193.901,289.111 195.289,285.463 201.561 C 284.215 203.707,282.505 206.667,281.664 208.139 C 268.514 231.143,261.466 238.541,255.594 235.504 C 251.960 233.625,250.529 223.114,251.294 203.919 C 251.746 192.558,252.297 185.929,254.262 168.195 C 254.874 162.677,254.912 162.379,256.808 148.293 C 260.140 123.538,263.758 116.791,275.122 114.141 C 278.194 113.425,287.139 113.434,290.927 114.157 M256.404 254.575 C 264.564 258.454,266.754 273.738,260.215 281.167 C 250.920 291.726,234.030 282.611,236.399 268.314 C 238.107 258.005,248.542 250.838,256.404 254.575 M296.672 302.780 C 309.518 309.227,308.356 328.841,294.857 333.399 C 291.555 334.515,105.524 334.385,102.332 333.265 C 90.217 329.016,87.971 311.617,98.570 304.125 C 102.881 301.078,93.914 301.320,199.415 301.396 L 294.049 301.463 296.672 302.780 " stroke="none" fill="#4cbcc4" fill-rule="evenodd"></path></g></svg>